<?xml version="1.0" encoding="utf-8"?>
<!-- Generator: Adobe Illustrator 26.0.0, SVG Export Plug-In . SVG Version: 6.00 Build 0)  -->
<svg version="1.1" id="Layer_1" xmlns="http://www.w3.org/2000/svg" xmlns:xlink="http://www.w3.org/1999/xlink" x="0px" y="0px"
	 viewBox="0 0 640 512" style="enable-background:new 0 0 640 512;" xml:space="preserve">
<style type="text/css">
	.st0{display:none;}
	.st1{stroke:#000000;stroke-width:36;stroke-linecap:round;stroke-linejoin:round;stroke-miterlimit:10;}
</style>
<path class="st0" d="M533.6,32.5C598.5,85.3,640,165.8,640,256s-41.5,170.8-106.4,223.5c-10.3,8.4-25.4,6.8-33.8-3.5
	s-6.8-25.4,3.5-33.8c54.2-44,88.7-111,88.7-186.2s-34.5-142.2-88.7-186.3c-10.3-8.4-11.8-23.5-3.5-33.8s23.5-11.8,33.8-3.5V32.5z" fill="#2e2d2d"/>
<path class="st0" d="M473.1,107c43.2,35.2,70.9,88.9,70.9,149s-27.7,113.8-70.9,149c-10.3,8.4-25.4,6.8-33.8-3.5s-6.8-25.4,3.5-33.8
	C475.3,341.3,496,301.1,496,256s-20.7-85.3-53.2-111.8c-10.3-8.4-11.8-23.5-3.5-33.8s23.5-11.8,33.8-3.5L473.1,107z" fill="#2e2d2d"/>
<path d="M301.1,34.8C312.6,40,320,51.4,320,64v384c0,12.6-7.4,24-18.9,29.2s-25,3.1-34.4-5.3L131.8,352H64c-35.3,0-64-28.7-64-64
	v-64c0-35.3,28.7-64,64-64h67.8L266.7,40.1C276.1,31.7,289.6,29.7,301.1,34.8z" fill="#2e2d2d"/>
<line class="st1" x1="357.6" y1="379.1" x2="564" y2="133" />
<line class="st1" x1="357.6" y1="133" x2="564" y2="379.1" />
</svg>
